<svg id="svg" version="1.1" xmlns="http://www.w3.org/2000/svg" xmlns:xlink="http://www.w3.org/1999/xlink" width="400" height="400" viewBox="0, 0, 400,400"><g id="svgg"><path id="path0" d="M219.727 85.127 L 153.711 105.672 153.612 186.820 C 153.558 231.452,153.392 267.969,153.244 267.969 C 153.096 267.969,150.558 266.993,147.604 265.799 C 132.977 259.890,119.537 259.071,106.869 263.315 C 69.068 275.979,69.268 329.718,107.145 337.519 C 130.959 342.425,157.441 330.964,165.166 312.410 C 169.842 301.177,169.919 299.574,169.920 213.476 L 169.922 143.163 218.848 127.969 C 245.757 119.613,268.081 112.693,268.457 112.592 C 269.106 112.418,269.141 115.475,269.141 172.806 C 269.141 206.024,268.994 233.203,268.815 233.203 C 268.635 233.203,266.753 232.497,264.633 231.634 C 241.210 222.104,219.866 225.291,205.506 240.462 C 189.539 257.329,191.587 284.620,209.766 297.230 C 227.417 309.474,258.431 305.282,274.570 288.470 C 280.469 282.326,283.228 275.882,285.022 264.063 C 285.655 259.888,286.324 104.777,285.850 72.037 L 285.742 64.582 219.727 85.127 " stroke="none" fill="#fbfbfc" fill-rule="evenodd"></path><path id="path1" d="M184.570 0.398 C 134.824 4.683,91.345 25.005,57.008 60.020 C -52.110 171.292,3.040 359.736,155.070 395.089 C 189.186 403.023,234.579 400.915,263.165 390.071 C 263.981 389.761,266.934 388.679,269.727 387.665 C 331.758 365.155,379.954 310.506,394.941 245.688 C 423.881 120.519,330.405 1.368,202.344 0.189 C 194.717 0.119,186.719 0.213,184.570 0.398 M285.938 160.701 C 285.938 223.431,285.798 258.357,285.538 260.994 C 283.875 277.821,278.731 287.317,267.082 295.069 C 255.703 302.640,239.253 306.058,225.539 303.701 C 187.681 297.193,183.190 247.180,218.959 230.418 C 231.984 224.314,247.926 224.605,264.242 231.244 C 266.363 232.106,268.245 232.812,268.424 232.813 C 268.603 232.813,268.750 205.811,268.750 172.809 L 268.750 112.806 267.871 113.031 C 267.105 113.227,174.520 141.936,171.201 143.007 L 169.941 143.414 169.822 219.070 C 169.691 302.306,169.843 296.937,167.338 306.579 C 162.196 326.371,143.615 338.417,118.164 338.459 C 94.120 338.498,79.645 325.832,78.635 303.869 C 77.039 269.187,113.802 250.004,150.133 266.561 L 153.125 267.924 153.125 186.769 L 153.125 105.613 219.043 85.066 C 255.298 73.765,285.181 64.504,285.449 64.486 C 285.839 64.460,285.938 83.945,285.938 160.701 " stroke="none" fill="#5b64f4" fill-rule="evenodd"></path><path id="path2" d="M153.317 186.914 C 153.317 231.602,153.362 249.825,153.418 227.410 C 153.474 204.996,153.474 168.433,153.418 146.160 C 153.362 123.887,153.317 142.227,153.317 186.914 " stroke="none" fill="#959cf4" fill-rule="evenodd"></path><path id="path3" d="M268.940 172.852 C 268.940 206.152,268.987 219.833,269.043 203.253 C 269.099 186.674,269.099 159.427,269.043 142.706 C 268.987 125.986,268.940 139.551,268.940 172.852 M206.421 239.160 L 205.273 240.430 206.543 239.282 C 207.726 238.213,207.992 237.891,207.690 237.891 C 207.623 237.891,207.052 238.462,206.421 239.160 M285.638 255.469 C 285.638 256.221,285.718 256.528,285.816 256.152 C 285.914 255.776,285.914 255.161,285.816 254.785 C 285.718 254.409,285.638 254.717,285.638 255.469 M194.665 266.992 C 194.667 268.711,194.735 269.365,194.818 268.447 C 194.900 267.528,194.899 266.122,194.815 265.322 C 194.731 264.522,194.664 265.273,194.665 266.992 M90.213 273.340 L 88.867 274.805 90.332 273.459 C 91.695 272.206,91.976 271.875,91.678 271.875 C 91.613 271.875,90.954 272.534,90.213 273.340 M169.638 287.891 C 169.638 288.857,169.714 289.253,169.807 288.770 C 169.900 288.286,169.900 287.495,169.807 287.012 C 169.714 286.528,169.638 286.924,169.638 287.891 M273.614 289.551 L 272.070 291.211 273.730 289.667 C 275.274 288.231,275.570 287.891,275.275 287.891 C 275.211 287.891,274.464 288.638,273.614 289.551 M78.606 304.297 C 78.606 305.049,78.687 305.356,78.785 304.980 C 78.883 304.604,78.883 303.989,78.785 303.613 C 78.687 303.237,78.606 303.545,78.606 304.297 " stroke="none" fill="#acb4fc" fill-rule="evenodd"></path><path id="path4" d="" stroke="none" fill="#828df4" fill-rule="evenodd"></path></g></svg>